{"title":"Rio 2 2014 Special HD-TS XVID AC3 HQ Hive-CM8","uid":10052406,"size":1595628884,"categoryP":"video","categoryS":"movies","magnet":"?xt=urn:btih:63fc86abd36dbb31817f5fa2a18d06611d4b1b4f&amp;dn=Rio+2+2014+Special+HD-TS+XVID+AC3+HQ+Hive-CM8&amp;tr=udp%3A%2F%2Ftracker.openbittorrent.com%3A80&amp;tr=udp%3A%2F%2Fopen.demonii.com%3A1337&amp;tr=udp%3A%2F%2Ftracker.coppersurfer.tk%3A6969&amp;tr=udp%3A%2F%2Fexodus.desync.com%3A6969","seeders":5,"leechers":0,"uploader":".BONE.","files":4,"time":1398620570,"description":"Rio.2.2014.Special.HD-TS.XVID.AC3.HQ.Hive-CM8\n\nThx Hive\n\nCM8 Doing It Right The First Time\n\nSources:\n\nVideo: 720p Italian HD-CAM\nAudio: Millenium/Echo\nthx\n\ngot that very nice hdcam - only default was that pulsating flickering, annoyed me within 5 mins\n\nthere are already cpl versions out, which all look pretty same to me,some even made 4 versions - wt*\nwasnt gonna bother you with another one if there isnt anything worth improving, till i found something\nthats worth my while\n\nEncode:\n\nI tried to get out that pulsating without effecting the video, tried cpl different methods and finally\nsuceeded - it can be removed nearly completely, took me cpl hours to get rid of it\nlooks perfect now!\n\nFixed brightness,sharpness,rgb,saturation,contrast, black balance and added sharpness\n\nFor the Audio i took Milleniums Line, since it sounded identical to blackpearls whoever got it from whom first i am thankful\nNoticed the Line had loads of crackles in it, at the normal way I couldnt get them all out\nhad to go the extramile and make a complete recleaning process. looks like its clean now\nnoticed around 30 oos spots i had to fix, took me some while, should all be lipsync now\n\nWill def. do me till retail - enjoy\n\nGot very nice!\n\nVideo: 720x304 @bitrate 2000 2pass\nAudio: English AC3 2.0 Stereo Line\nSample: yes included &lt;a href=&quot;\nhttp://www.imdb.com/title/tt2357291/&quot; rel=&quot;nofollow&quot; target=&quot;_NEW&quot;&gt;\nhttp://www.imdb.com/title/tt2357291/&lt;/a&gt;\n\nGeneral\nComplete name: Rio.2.2014.Special.HD-TS.XVID.AC3.HQ.Hive-CM8.avi\nFormat: AVI\nFormat/Info: Audio Video Interleave\nFile size: 1.46 GiB\nDuration: 1h 32mn\nOverall bit rate: 2 264 Kbps\nWriting application: Nandub v1.0rc2\nWriting library: Nandub build 1853/release\n\nVideo\nID: 0\nFormat: MPEG-4 Visual\nFormat profile: Advanced Simple@L5\nFormat settings, BVOP: 2\nFormat settings, QPel: Yes\nFormat settings, GMC: No warppoints\nFormat settings, Matrix: Default (H.263)\nMuxing mode: Packed bitstream\nCodec ID: XVID\nCodec ID/Hint: XviD\nDuration: 1h 32mn\nBit rate: 1 999 Kbps\nWidth: 720 pixels\nHeight: 304 pixels\nDisplay aspect ratio: 2.35:1\nFrame rate: 25.000 fps\nColor space: YUV\nChroma subsampling: 4:2:0\nBit depth: 8 bits\nScan type: Progressive\nCompression mode: Lossy\nBits/(Pixel*Frame): 0.365\nStream size: 1.29 GiB (88%)\nWriting library: XviD 1.2.1 (UTC 2008-12-04)\n\nAudio\nID: 1\nFormat: AC-3\nFormat/Info: Audio Coding 3\nMode extension: CM (complete main)\nFormat settings, Endianness: Big\nCodec ID: 2000\nDuration: 1h 32mn\nBit rate mode: Constant\nBit rate: 256 Kbps\nChannel(s): 2 channels\nChannel positions: Front: L R\nSampling rate: 48.0 KHz\nBit depth: 16 bits\nCompression mode: Lossy\nStream size: 169 MiB (11%)\nAlignment: Split accross interleaves\nInterleave, duration: 40 ms (1.00 video frame)\nInterleave, preload duration: 500 ms\n\nPlot:\n\nIt's a jungle out there for Blu, Jewel and their three kids after they're hurtled Rio de Janeiro\nto the wilds of the Amazon. As Blu tries to fit in, he goes beak-to-beak with the vengeful Nigel\nand meets the most fearsome adversary of all: his father-in-law\n\nCast:\n\nJesse Eisenberg ... Blu (voice)\nMiguel Ferrer ... Big Boss (voice)\nJamie Foxx ... Nico (voice)\nPierce Gagnon ... Tiago (voice)\nAndy Garcia ... Eduardo (voice)\nAnne Hathaway ... Jewel (voice)\n\nGreetz\n\nSugarB\nViSiON,SPK,SceneLovers,PRESTiGE,SANTi,3LT0N,YanKeeS,COPYxRIGHT,THC,T0XiC\nD2U,LKRG,Kingstoner,MiLLENiUM,Feel-Free,WBZ,BHRG,NOVA,MAGNET\nUnevano,BigVik,Rapeseed,SAFC,goldadvance,KaN1vE,Pinnz,Wayne,HiGH\nSeeN,jtr,Limey,ICONiK,4PlayHD,THEDEN-RG,eXceSs,AKS74u,TED\nMr Hive,rkofan,and most P2P groups\nGreat Work Guys\n\nLOOKING FOR ANYTHING YOU WANT TO LOOK AND SOUND BETTER\n\nCOME FIND US AND HANGOUT WITH US DRUNKARDS\n\n&lt;a class=&quot;__cf_email__&quot; href=&quot;/cdn-cgi/l/email-protection&quot; data-cfemail=&quot;b1f2fc89f1d9c4c2d9dcd0d8dd9fdcd4&quot;&gt;[email&amp;#160;protected]&lt;/a&gt;&lt;script cf-hash='f9e31' type=&quot;text/javascript&quot;&gt;\n/* &lt;![CDATA[ */!function(){try{var t=&quot;currentScript&quot;in document?document.currentScript:function(){for(var t=document.getElementsByTagName(&quot;script&quot;),e=t.length;e--;)if(t[e].getAttribute(&quot;cf-hash&quot;))return t[e]}();if(t&amp;&amp;t.previousSibling){var e,r,n,i,c=t.previousSibling,a=c.getAttribute(&quot;data-cfemail&quot;);if(a){for(e=&quot;&quot;,r=parseInt(a.substr(0,2),16),n=2;a.length-n;n+=2)i=parseInt(a.substr(n,2),16)^r,e+=String.fromCharCode(i);e=document.createTextNode(e),c.parentNode.replaceChild(e,c)}}}catch(u){}}();/* ]]&gt; */&lt;/script&gt;\n &lt;a href=&quot;\nhttp://imghost.glotorrents.com/images/24153651400328797437.png&quot; rel=&quot;nofollow&quot; target=&quot;_NEW&quot;&gt;\nhttp://imghost.glotorrents.com/images/24153651400328797437.png&lt;/a&gt; &lt;a href=&quot;\nhttp://imghost.glotorrents.com/images/07439863302807777649.png&quot; rel=&quot;nofollow&quot; target=&quot;_NEW&quot;&gt;\nhttp://imghost.glotorrents.com/images/07439863302807777649.png&lt;/a&gt; &lt;a href=&quot;\nhttp://imghost.glotorrents.com/images/70350457830032332254.png&quot; rel=&quot;nofollow&quot; target=&quot;_NEW&quot;&gt;\nhttp://imghost.glotorrents.com/images/70350457830032332254.png&lt;/a&gt; &lt;a href=&quot;\nhttp://imghost.glotorrents.com/images/21859850113071350679.png&quot; rel=&quot;nofollow&quot; target=&quot;_NEW&quot;&gt;\nhttp://imghost.glotorrents.com/images/21859850113071350679.png&lt;/a&gt; &lt;a href=&quot;\nhttp://imghost.glotorrents.com/images/07513664987525265026.png&quot; rel=&quot;nofollow&quot; target=&quot;_NEW&quot;&gt;\nhttp://imghost.glotorrents.com/images/07513664987525265026.png&lt;/a&gt;","torrent":{"xt":"urn:btih:63fc86abd36dbb31817f5fa2a18d06611d4b1b4f","amp;dn":"Rio+2+2014+Special+HD-TS+XVID+AC3+HQ+Hive-CM8","amp;tr":["udp%3A%2F%2Ftracker.openbittorrent.com%3A80","udp%3A%2F%2Fopen.demonii.com%3A1337","udp%3A%2F%2Ftracker.coppersurfer.tk%3A6969","udp%3A%2F%2Fexodus.desync.com%3A6969"],"infoHash":"63fc86abd36dbb31817f5fa2a18d06611d4b1b4f","infoHashBuffer":{"type":"Buffer","data":[99,252,134,171,211,109,187,49,129,127,95,162,161,141,6,97,29,75,27,79]},"announce":[],"urlList":[]}}